<?xml version="1.0" encoding="UTF-8"?>
<svg width="32px" height="32px" viewBox="0 0 32 32" version="1.1" xmlns="http://www.w3.org/2000/svg" xmlns:xlink="http://www.w3.org/1999/xlink">
    <!-- Generator: sketchtool 61 (101010) - https://sketch.com -->
    <title>1F3EA289-E1E2-4569-8287-253C411B6BE3</title>
    <desc>Created with sketchtool.</desc>
    <g id="desktop" stroke="none" stroke-width="1" fill="none" fill-rule="evenodd">
        <g id="Home-assets" transform="translate(-1409.000000, -45.000000)" fill="#FFFFFF" fill-rule="nonzero">
            <g id="top-menu" transform="translate(375.000000, 40.000000)">
                <g id="Group-27" transform="translate(1034.000000, 5.000000)">
                    <path d="M0,0 L0,32 L32,32 L32,0 L0,0 Z M5,11.3304 C5,10.5136 5.5328,10.2488 6.184,10.7424 L6.184,10.7424 L14.9576,17.4024 C15.2856,17.648 15.7152,17.7688 16.144,17.7632 C16.572,17.7688 17.0016,17.6488 17.3296,17.4024 L17.3296,17.4024 L26.1016,10.7424 C26.7528,10.2488 27.2856,10.5136 27.2856,11.3304 L27.2856,11.3304 L27.2856,22.2576 C27.2856,23.0744 26.6168,23.7432 25.8,23.7432 L25.8,23.7432 L6.4856,23.7432 C5.6688,23.7432 5,23.0744 5,22.2576 L5,22.2576 Z M25.2032,8.1432 C26.0192,8.1432 26.1648,8.5584 25.5216,9.0648 L25.5216,9.0648 L17.4944,15.4232 C17.1304,15.712 16.6288,15.8392 16.1424,15.8152 C15.6552,15.8392 15.1536,15.7112 14.7896,15.4232 L14.7896,15.4232 L6.7624,9.0648 C6.1208,8.5584 6.2664,8.1432 7.0832,8.1432 L7.0832,8.1432 Z" id="mail"></path>
                </g>
            </g>
        </g>
    </g>
</svg>