<?xml version="1.0" encoding="UTF-8"?>
<svg width="32px" height="32px" viewBox="0 0 32 32" version="1.1" xmlns="http://www.w3.org/2000/svg" xmlns:xlink="http://www.w3.org/1999/xlink">
    <!-- Generator: sketchtool 61 (101010) - https://sketch.com -->
    <title>88A95FDE-59A9-49A8-A3C7-F410756EF6B1</title>
    <desc>Created with sketchtool.</desc>
    <g id="desktop" stroke="none" stroke-width="1" fill="none" fill-rule="evenodd">
        <g id="Home-assets" transform="translate(-1513.000000, -45.000000)" fill="#FFFFFF" fill-rule="nonzero">
            <g id="top-menu" transform="translate(375.000000, 40.000000)">
                <g id="Group-27" transform="translate(1034.000000, 5.000000)">
                    <g id="skype-copy" transform="translate(104.000000, 0.000000)">
                        <path d="M20.102189,15.776633 C19.6551033,15.4821626 19.1153934,15.2344615 18.4818637,15.0289582 C17.8474198,14.8246505 17.1406066,14.6372923 16.3631121,14.4689231 C15.7428044,14.323411 15.2957187,14.2129231 15.0264967,14.1372484 C14.7609319,14.0624879 14.4963516,13.9591033 14.2357099,13.8258286 C13.9760527,13.6935385 13.7729407,13.5371956 13.6274286,13.3569407 C13.484378,13.1790769 13.413556,12.9701978 13.4123604,12.7224967 C13.413556,12.3271033 13.6215912,11.9905055 14.0566505,11.6996923 C14.4892484,11.4135209 15.0612396,11.2667429 15.7775473,11.2667429 C16.5517363,11.2654769 17.1070593,11.4014945 17.4446418,11.6624176 C17.7908044,11.929178 18.0877363,12.3017846 18.336633,12.7786901 C18.533556,13.1214769 18.7150769,13.3667165 18.8882989,13.5217934 C19.0661626,13.6815121 19.3221626,13.7559209 19.6489143,13.7559209 C20.0107604,13.7571165 20.3209143,13.6272879 20.5636923,13.3712879 C20.8064703,13.1164835 20.9301802,12.8245451 20.9301802,12.5035604 C20.9301802,12.1586637 20.8341802,11.8038505 20.6418989,11.442356 C20.4508132,11.0805099 20.1468484,10.7368088 19.7345055,10.4097758 C19.320967,10.0830242 18.8015824,9.8221011 18.1803604,9.62482637 C17.5566769,9.4279033 16.8184967,9.33035604 15.9677187,9.33035604 C14.9015912,9.33035604 13.9711297,9.47832967 13.1816088,9.77526154 C12.3896264,10.0709275 11.7812747,10.4974066 11.3607033,11.0539956 C10.9413275,11.6081231 10.7308308,12.2462945 10.7308308,12.9589451 C10.7308308,13.7066198 10.9293011,14.3376879 11.3280703,14.8447648 C11.7259253,15.3484659 12.2631736,15.7463209 12.9376352,16.0370637 C13.6118154,16.3281582 14.4434637,16.5804308 15.437644,16.7967648 C16.1779341,16.9530374 16.7693363,17.1008 17.2093187,17.241389 C17.6477538,17.3786022 18.0013011,17.5767912 18.2754462,17.8377143 C18.5455824,18.0937143 18.6779429,18.4229275 18.6779429,18.8377319 C18.6779429,19.3580308 18.4327033,19.7885187 17.9219692,20.1417143 C17.4148923,20.4928 16.7511912,20.6693978 15.9293187,20.6693978 C15.3293363,20.6693978 14.8499692,20.5829626 14.4893187,20.4084747 C14.125011,20.2343385 13.843833,20.0118857 13.644378,19.7451253 C13.4434462,19.4759033 13.2536264,19.1380396 13.0794198,18.7331516 C12.9351033,18.3845275 12.7572396,18.1202286 12.5455473,17.9387077 C12.3316747,17.7559209 12.0707516,17.6645626 11.7655209,17.6645626 C11.3929143,17.6645626 11.0781187,17.7811692 10.8328791,18.0143824 C10.591367,18.2464 10.4663912,18.5300396 10.4663912,18.8555956 C10.4663912,19.4097934 10.6670418,19.9771429 11.0648264,20.5565187 C11.4602198,21.1358945 11.9758769,21.599578 12.6103912,21.9457407 C13.504844,22.4303824 14.6368703,22.669433 16.0048527,22.669433 C17.1467253,22.669433 18.1347165,22.4940308 18.9710066,22.1404835 C19.8063824,21.7896791 20.4445538,21.3004659 20.8796132,20.6743209 C21.3146725,20.0490901 21.5334681,19.3435429 21.5322077,18.5576791 C21.5322077,17.9062857 21.4072967,17.3521582 21.1549538,16.8988835 C20.9040176,16.4458198 20.5516659,16.0711033 20.102189,15.776633 Z" id="Path"></path>
                        <path d="M0,0 L0,32 L32,32 L32,0 L0,0 Z M20.8651956,27.0769231 C19.6682549,27.0769231 18.5516308,26.7369495 17.6033758,26.1525802 C17.0806154,26.2356396 16.544633,26.2778374 15.9987341,26.2778374 C10.3233407,26.2778374 5.72244396,21.676589 5.72244396,16 C5.72244396,15.4532571 5.76675165,14.9205802 5.84734945,14.3966242 C5.26213626,13.4471033 4.92307692,12.3316747 4.92307692,11.1347341 C4.92307692,7.70306813 7.70433407,4.92307692 11.1348044,4.92307692 C12.3317451,4.92307692 13.4483692,5.26213626 14.3954286,5.84734945 C14.918189,5.76548571 15.4545231,5.72117802 16.0000703,5.72117802 C21.6766593,5.72117802 26.2776264,10.3220747 26.2776264,15.9999297 C26.2776264,16.5457582 26.2345143,17.0805451 26.1514549,17.6033055 C26.7379341,18.5516308 27.0769934,19.6682549 27.0769934,20.8654769 C27.0769934,24.2956659 24.2956659,27.0769231 20.8651956,27.0769231 Z" id="Shape"></path>
                    </g>
                </g>
            </g>
        </g>
    </g>
</svg>