<?xml version="1.0" encoding="UTF-8"?>
<svg width="32px" height="32px" viewBox="0 0 32 32" version="1.1" xmlns="http://www.w3.org/2000/svg" xmlns:xlink="http://www.w3.org/1999/xlink">
    <!-- Generator: sketchtool 61 (101010) - https://sketch.com -->
    <title>447C5367-7CF9-4589-A8B5-AE27E5B29A0D</title>
    <desc>Created with sketchtool.</desc>
    <g id="desktop" stroke="none" stroke-width="1" fill="none" fill-rule="evenodd">
        <g id="Home-assets" transform="translate(-1461.000000, -45.000000)" fill="#FFFFFF" fill-rule="nonzero">
            <g id="top-menu" transform="translate(375.000000, 40.000000)">
                <g id="Group-27" transform="translate(1034.000000, 5.000000)">
                    <g id="twitter-copy" transform="translate(52.000000, 0.000000)">
                        <path d="M0,0 L0,32 L32,32 L32,0 L0,0 Z M24.8088615,11.4819516 C24.8175121,11.6769758 24.8219429,11.8730549 24.8219429,12.0699077 C24.8219429,18.0762725 20.2503736,25.0018462 11.8902154,25.0018462 C9.32346374,25.0018462 6.93436484,24.2495297 4.92300659,22.9596835 C5.27859341,23.0019516 5.6402989,23.0234725 6.00727912,23.0234725 C8.13672088,23.0234725 10.0964571,22.2968967 11.6520791,21.0775912 C9.66315604,21.0410901 7.98452747,19.7269802 7.40606593,17.9211956 C7.68372747,17.9744352 7.96849231,18.002989 8.26134505,18.002989 C8.67586813,18.002989 9.07745055,17.9471473 9.45884835,17.8434813 C7.37969231,17.4257934 5.81288791,15.5889231 5.81288791,13.3868308 C5.81288791,13.3676308 5.81288791,13.3485714 5.81330989,13.3295824 C6.42602198,13.669978 7.12678681,13.8744967 7.87192967,13.8981275 C6.65227253,13.0830769 5.85009231,11.6918154 5.85009231,10.1150945 C5.85009231,9.28203956 6.07423297,8.50138022 6.46554725,7.82994286 C8.70716484,10.5799033 12.0562637,12.3892747 15.8336703,12.5790242 C15.7560967,12.2462242 15.7157275,11.8992879 15.7157275,11.5431385 C15.7157275,9.03321319 17.7509275,6.99822418 20.2608527,6.99822418 C21.568211,6.99822418 22.7494681,7.5501011 23.5785143,8.43337143 C24.6136967,8.22976703 25.5864967,7.85132308 26.4647033,7.33053187 C26.125433,8.39194725 25.4047648,9.28246154 24.4662857,9.8450989 C25.3857758,9.73517363 26.2616615,9.49077802 27.0767824,9.12928352 C26.4675868,10.0406857 25.6970549,10.8412484 24.8088615,11.4819516 Z" id="Shape"></path>
                    </g>
                </g>
            </g>
        </g>
    </g>
</svg>