<?xml version="1.0" encoding="UTF-8"?>
<svg width="70px" height="40px" viewBox="0 0 70 40" version="1.1" xmlns="http://www.w3.org/2000/svg" xmlns:xlink="http://www.w3.org/1999/xlink">
    <!-- Generator: sketchtool 61 (101010) - https://sketch.com -->
    <title>8113CD68-FFCE-4864-891F-82E4BF9A8B34</title>
    <desc>Created with sketchtool.</desc>
    <g id="desktop" stroke="none" stroke-width="1" fill="none" fill-rule="evenodd">
        <g id="HealthCare" transform="translate(-375.000000, -40.000000)" fill="#FFFFFF">
            <g id="top-menu" transform="translate(375.000000, 40.000000)">
                <g id="Logo-Copy">
                    <path d="M28,0.00121878301 C34.627417,0.00121878301 40,5.37380179 40,12.0012188 L40,28.0012188 C40,34.6286358 34.627417,40.0012188 28,40.0012188 L0,40.0012188 L0,0.00121878301 L28,0.00121878301 Z M28,6.00121878 L6,6.00121878 L6,34.0012188 L28,34.0012188 C31.3137085,34.0012188 34,31.3149273 34,28.0012188 L34,28.0012188 L34,12.0012188 C34,8.68751028 31.3137085,6.00121878 28,6.00121878 L28,6.00121878 Z" id="Combined-Shape"></path>
                    <path d="M60,0.00121878301 L60.0007248,0.0461271408 C65.6068787,0.551696699 70,5.26342351 70,11.0012188 C70,14.7216894 68.1529491,18.0107581 65.3258048,20.0014677 C68.1529491,21.9916794 70,25.2807482 70,29.0012188 C70,34.7390141 65.6068787,39.4507409 60.0007248,39.9563104 L60,40.0012188 L36.6357736,40.0010969 C38.7823857,38.5737835 40.4431079,36.4737152 41.3169386,34.0018938 L58.5,34.0012188 C61.5375661,34.0012188 64,31.5387849 64,28.5012188 C64,25.4636527 61.5375661,23.0012188 58.5,23.0012188 L58.5,23.0012188 L41.9997568,23.001 L41.9997568,17.001 L58.5,17.0012188 C61.4634791,17.0012188 63.8795391,14.6574388 63.9956328,11.7224259 L64,11.5012188 C64,8.46365266 61.5375661,6.00121878 58.5,6.00121878 L58.5,6.00121878 L41.3172055,6.00129885 C40.4431725,3.52837595 38.7815641,1.42748416 36.6337568,2.0539126e-14 L60,0.00121878301 Z" id="Combined-Shape"></path>
                </g>
            </g>
        </g>
    </g>
</svg>